<svg width="100%" height="100%" viewBox="0 0 44 42" version="1.1" xmlns="http://www.w3.org/2000/svg"><title>Icons / Action Based / star</title><desc>Created with Sketch.</desc><g id="Category-Page-Interactions" stroke="none" stroke-width="1" fill="none" fill-rule="evenodd"><g id="Category-Page---Category-Dropdown---Desktop" transform="translate(-658.000000, -2056.000000)" fill="#fff" fill-rule="nonzero"><g id="Icons-/-Action-Based-/-star" transform="translate(656.000000, 2053.000000)"><path d="M10.9890959,44.7394091 C10.7010058,44.7231762 10.4258136,44.6145477 10.2043113,44.4296257 C9.7943818,44.123443 9.59415242,43.6108558 9.68800554,43.107883 L12.5793176,29.560021 L2.43907328,20.3078226 C2.04713503,19.9464001 1.90189431,19.389644 2.06733316,18.8828188 C2.23481327,18.3832515 2.67905903,18.0278549 3.20320574,17.9741208 L16.95759,16.549117 L22.7608663,3.70343075 C23.0167615,3.26765233 23.4843174,3 23.9896739,3 C24.4950304,3 24.9625863,3.26765233 25.2184815,3.70343075 L31.0217577,16.549117 L44.7967943,17.9741208 C45.320941,18.0278549 45.7651867,18.3832515 45.9326668,18.8828188 C46.0981057,19.389644 45.952865,19.9464001 45.5609267,20.3078226 L35.4000302,29.560021 L38.3119945,43.107883 C38.4185581,43.6284615 38.2080213,44.1629011 37.7750365,44.4709301 C37.3358485,44.7578112 36.7685686,44.7578112 36.3293805,44.4709301 L23.9380433,37.325259 L11.7532284,44.553539 C11.5243208,44.6941169 11.2569979,44.7591413 10.9890959,44.7394091 Z M6.44560564,20.3284748 L14.9543238,28.0937128 C15.3038845,28.4201467 15.453361,28.9079122 15.3467162,29.374151 L12.9304054,40.7122245 L23.2565198,34.702426 C23.6694403,34.4537704 24.1859941,34.4537704 24.5989146,34.702426 L34.925029,40.7122245 L32.6119794,29.374151 C32.5229481,28.9048688 32.6785481,28.4225088 33.0250239,28.0937128 L41.5337421,20.3284748 L29.9684941,19.1306456 C29.4938765,19.0882558 29.0773012,18.7974392 28.873926,18.3665131 L23.9793478,7.52409305 L19.0847696,18.3665131 C18.8855183,18.8192361 18.443331,19.1167076 17.948897,19.1306456 L6.44560564,20.3284748 Z"></path></g></g></g></svg>